<!-- This is a placeholder for icon files. You'll need to create actual PNG icons. -->
<!-- For now, I'll create a simple SVG that can be used as reference -->
<svg width="128" height="128" viewBox="0 0 128 128" xmlns="http://www.w3.org/2000/svg">
  <!-- Calendar background -->
  <rect x="16" y="24" width="96" height="88" rx="8" fill="#2196F3" stroke="#1976D2" stroke-width="2"/>
  
  <!-- Calendar header -->
  <rect x="16" y="24" width="96" height="24" rx="8" fill="#1976D2"/>
  <rect x="16" y="40" width="96" height="8" fill="#1976D2"/>
  
  <!-- Calendar holes -->
  <circle cx="32" cy="20" r="4" fill="#666"/>
  <circle cx="96" cy="20" r="4" fill="#666"/>
  
  <!-- Calendar grid -->
  <g fill="white" opacity="0.9">
    <rect x="24" y="56" width="12" height="8" rx="2"/>
    <rect x="40" y="56" width="12" height="8" rx="2"/>
    <rect x="56" y="56" width="12" height="8" rx="2"/>
    <rect x="72" y="56" width="12" height="8" rx="2"/>
    <rect x="88" y="56" width="12" height="8" rx="2"/>
    
    <rect x="24" y="72" width="12" height="8" rx="2"/>
    <rect x="40" y="72" width="12" height="8" rx="2"/>
    <rect x="56" y="72" width="12" height="8" rx="2"/>
    <rect x="72" y="72" width="12" height="8" rx="2"/>
    <rect x="88" y="72" width="12" height="8" rx="2"/>
    
    <rect x="24" y="88" width="12" height="8" rx="2"/>
    <rect x="40" y="88" width="12" height="8" rx="2"/>
    <rect x="56" y="88" width="12" height="8" rx="2" fill="#4CAF50"/>
    <rect x="72" y="88" width="12" height="8" rx="2"/>
    <rect x="88" y="88" width="12" height="8" rx="2"/>
  </g>
  
  <!-- University symbol -->
  <circle cx="64" cy="88" r="6" fill="#4CAF50"/>
  <text x="64" y="94" text-anchor="middle" fill="white" font-family="serif" font-size="10" font-weight="bold">ف</text>
</svg>